<svg width="40" height="29" viewBox="0 0 40 29" fill="none" xmlns="http://www.w3.org/2000/svg">
<path d="M38.2747 20.1488H11.824L13.1521 18.0032L35.2188 17.9715C35.965 17.9715 36.6046 17.5487 36.7378 16.9639L39.7938 3.39629C39.8737 3.04046 39.7538 2.67405 39.4606 2.39573C39.3158 2.25875 39.135 2.14841 38.931 2.07236C38.727 1.99632 38.5046 1.95638 38.2791 1.95533L10.2072 1.88135L9.96732 0.986475C9.8163 0.415729 9.1678 0 8.43047 0H1.56794C1.1521 0 0.753286 0.131028 0.45924 0.36426C0.165194 0.597493 0 0.913823 0 1.24366C0 1.5735 0.165194 1.88983 0.45924 2.12307C0.753286 2.3563 1.1521 2.48733 1.56794 2.48733H7.16013L8.20838 6.44027L10.789 16.3508L7.46661 20.6526C7.29407 20.8373 7.19015 21.0566 7.1666 21.2857C7.14305 21.5149 7.20081 21.7446 7.33335 21.9491C7.59986 22.3683 8.13731 22.6326 8.73251 22.6326H11.5219C10.9273 23.259 10.6061 24.0221 10.6069 24.8063C10.6069 26.8004 12.6501 28.4211 15.1642 28.4211C17.6782 28.4211 19.7214 26.8004 19.7214 24.8063C19.7214 24.0207 19.3927 23.2562 18.8064 22.6326H25.9621C25.3674 23.259 25.0462 24.0221 25.0471 24.8063C25.0471 26.8004 27.0903 28.4211 29.6044 28.4211C32.1184 28.4211 34.1616 26.8004 34.1616 24.8063C34.1616 24.0207 33.8329 23.2562 33.2466 22.6326H38.2791C39.1408 22.6326 39.8471 22.0759 39.8471 21.3889C39.8445 21.0594 39.6777 20.7441 39.3831 20.5118C39.0886 20.2794 38.6901 20.1489 38.2747 20.1488ZM10.8601 4.33344L36.4358 4.40038L33.9306 15.5264L13.8405 15.5546L10.8601 4.33344ZM15.1642 25.9196C14.3913 25.9196 13.7606 25.4193 13.7606 24.8063C13.7606 24.1933 14.3913 23.693 15.1642 23.693C15.9371 23.693 16.5678 24.1933 16.5678 24.8063C16.5678 25.1016 16.4199 25.3848 16.1567 25.5936C15.8935 25.8023 15.5364 25.9196 15.1642 25.9196ZM29.6044 25.9196C28.8315 25.9196 28.2008 25.4193 28.2008 24.8063C28.2008 24.1933 28.8315 23.693 29.6044 23.693C30.3772 23.693 31.008 24.1933 31.008 24.8063C31.008 25.1016 30.8601 25.3848 30.5969 25.5936C30.3336 25.8023 29.9766 25.9196 29.6044 25.9196Z" fill="black"/>
</svg>
