<svg width="50" height="46" viewBox="0 0 50 46" fill="none" xmlns="http://www.w3.org/2000/svg">
<path d="M20.4483 23C20.4483 20.6879 22.4863 18.8131 25.0009 18.8131C27.5156 18.8131 29.5547 20.6879 29.5547 23C29.5547 25.3121 27.5156 27.1869 25.0009 27.1869C22.4863 27.1869 20.4483 25.3121 20.4483 23ZM17.9866 23C17.9866 26.562 21.1269 29.4493 25.0009 29.4493C28.875 29.4493 32.0153 26.562 32.0153 23C32.0153 19.438 28.875 16.5507 25.0009 16.5507C21.1269 16.5507 17.9866 19.438 17.9866 23ZM30.6537 16.295C30.6536 16.5931 30.7496 16.8845 30.9296 17.1324C31.1096 17.3803 31.3656 17.5736 31.665 17.6878C31.9645 17.802 32.2941 17.8319 32.6121 17.7739C32.9301 17.7159 33.2222 17.5724 33.4516 17.3617C33.6809 17.151 33.8372 16.8825 33.9005 16.5902C33.9639 16.2979 33.9316 15.9948 33.8076 15.7194C33.6837 15.4439 33.4737 15.2084 33.2042 15.0427C32.9347 14.877 32.6178 14.7885 32.2936 14.7884H32.2929C31.8584 14.7886 31.4417 14.9474 31.1343 15.2298C30.8269 15.5123 30.6541 15.8954 30.6537 16.295ZM19.4822 33.2234C18.1504 33.1676 17.4265 32.9637 16.9455 32.7913C16.3077 32.5631 15.8527 32.2912 15.3742 31.8519C14.8958 31.4126 14.5996 30.9946 14.3524 30.4082C14.1649 29.9661 13.9431 29.3003 13.8825 28.0758C13.8163 26.7519 13.8031 26.3542 13.8031 23.0001C13.8031 19.646 13.8174 19.2494 13.8825 17.9244C13.9432 16.6999 14.1667 16.0354 14.3524 15.592C14.6007 15.0056 14.8964 14.5872 15.3742 14.1473C15.852 13.7074 16.3066 13.4352 16.9455 13.2079C17.4263 13.0354 18.1504 12.8315 19.4822 12.7758C20.9221 12.7149 21.3546 12.7028 25.0009 12.7028C28.6472 12.7028 29.0802 12.7159 30.5213 12.7758C31.8531 12.8316 32.5758 13.0371 33.058 13.2079C33.6958 13.4352 34.1508 13.7081 34.6293 14.1473C35.1077 14.5866 35.4028 15.0056 35.6511 15.592C35.8386 16.0341 36.0604 16.6999 36.121 17.9244C36.1872 19.2494 36.2004 19.646 36.2004 23.0001C36.2004 26.3542 36.1872 26.7508 36.121 28.0758C36.0603 29.3003 35.8374 29.9659 35.6511 30.4082C35.4028 30.9946 35.1071 31.413 34.6293 31.8519C34.1515 32.2908 33.6958 32.5631 33.058 32.7913C32.5772 32.9638 31.8531 33.1677 30.5213 33.2234C29.0814 33.2843 28.6489 33.2964 25.0009 33.2964C21.353 33.2964 20.9217 33.2843 19.4822 33.2234ZM19.3691 10.5162C17.9149 10.5771 16.9212 10.7891 16.0534 11.0996C15.1547 11.4203 14.3939 11.8504 13.6336 12.5483C12.8733 13.2463 12.4067 13.9469 12.058 14.7732C11.7203 15.5716 11.4897 16.4848 11.4235 17.8218C11.3562 19.161 11.3408 19.5892 11.3408 23C11.3408 26.4109 11.3562 26.839 11.4235 28.1782C11.4897 29.5153 11.7203 30.4284 12.058 31.2268C12.4067 32.0526 12.8734 32.7541 13.6336 33.4517C14.3938 34.1493 15.1547 34.5789 16.0534 34.9004C16.9229 35.2109 17.9149 35.4229 19.3691 35.4838C20.8264 35.5447 21.2913 35.5598 25.0009 35.5598C28.7106 35.5598 29.1762 35.5457 30.6327 35.4838C32.0871 35.4229 33.0801 35.2109 33.9485 34.9004C34.8466 34.5789 35.608 34.1496 36.3683 33.4517C37.1285 32.7538 37.5942 32.0526 37.9439 31.2268C38.2816 30.4284 38.5132 29.5152 38.5784 28.1782C38.6446 26.838 38.66 26.4109 38.66 23C38.66 19.5892 38.6446 19.161 38.5784 17.8218C38.5122 16.4847 38.2816 15.5711 37.9439 14.7732C37.5942 13.9474 37.1273 13.2474 36.3683 12.5483C35.6092 11.8493 34.8466 11.4203 33.9495 11.0996C33.0801 10.7891 32.087 10.5761 30.6338 10.5162C29.1773 10.4554 28.7117 10.4402 25.002 10.4402C21.2924 10.4402 20.8264 10.4544 19.3691 10.5162Z" fill="url(#paint0_radial_148_234)"/>
<path d="M20.4483 23C20.4483 20.6879 22.4863 18.8131 25.0009 18.8131C27.5156 18.8131 29.5547 20.6879 29.5547 23C29.5547 25.3121 27.5156 27.1869 25.0009 27.1869C22.4863 27.1869 20.4483 25.3121 20.4483 23ZM17.9866 23C17.9866 26.562 21.1269 29.4493 25.0009 29.4493C28.875 29.4493 32.0153 26.562 32.0153 23C32.0153 19.438 28.875 16.5507 25.0009 16.5507C21.1269 16.5507 17.9866 19.438 17.9866 23ZM30.6537 16.295C30.6536 16.5931 30.7496 16.8845 30.9296 17.1324C31.1096 17.3803 31.3656 17.5736 31.665 17.6878C31.9645 17.802 32.2941 17.8319 32.6121 17.7739C32.9301 17.7159 33.2222 17.5724 33.4516 17.3617C33.6809 17.151 33.8372 16.8825 33.9005 16.5902C33.9639 16.2979 33.9316 15.9948 33.8076 15.7194C33.6837 15.4439 33.4737 15.2084 33.2042 15.0427C32.9347 14.877 32.6178 14.7885 32.2936 14.7884H32.2929C31.8584 14.7886 31.4417 14.9474 31.1343 15.2298C30.8269 15.5123 30.6541 15.8954 30.6537 16.295ZM19.4822 33.2234C18.1504 33.1676 17.4265 32.9637 16.9455 32.7913C16.3077 32.5631 15.8527 32.2912 15.3742 31.8519C14.8958 31.4126 14.5996 30.9946 14.3524 30.4082C14.1649 29.9661 13.9431 29.3003 13.8825 28.0758C13.8163 26.7519 13.8031 26.3542 13.8031 23.0001C13.8031 19.646 13.8174 19.2494 13.8825 17.9244C13.9432 16.6999 14.1667 16.0354 14.3524 15.592C14.6007 15.0056 14.8964 14.5872 15.3742 14.1473C15.852 13.7074 16.3066 13.4352 16.9455 13.2079C17.4263 13.0354 18.1504 12.8315 19.4822 12.7758C20.9221 12.7149 21.3546 12.7028 25.0009 12.7028C28.6472 12.7028 29.0802 12.7159 30.5213 12.7758C31.8531 12.8316 32.5758 13.0371 33.058 13.2079C33.6958 13.4352 34.1508 13.7081 34.6293 14.1473C35.1077 14.5866 35.4028 15.0056 35.6511 15.592C35.8386 16.0341 36.0604 16.6999 36.121 17.9244C36.1872 19.2494 36.2004 19.646 36.2004 23.0001C36.2004 26.3542 36.1872 26.7508 36.121 28.0758C36.0603 29.3003 35.8374 29.9659 35.6511 30.4082C35.4028 30.9946 35.1071 31.413 34.6293 31.8519C34.1515 32.2908 33.6958 32.5631 33.058 32.7913C32.5772 32.9638 31.8531 33.1677 30.5213 33.2234C29.0814 33.2843 28.6489 33.2964 25.0009 33.2964C21.353 33.2964 20.9217 33.2843 19.4822 33.2234ZM19.3691 10.5162C17.9149 10.5771 16.9212 10.7891 16.0534 11.0996C15.1547 11.4203 14.3939 11.8504 13.6336 12.5483C12.8733 13.2463 12.4067 13.9469 12.058 14.7732C11.7203 15.5716 11.4897 16.4848 11.4235 17.8218C11.3562 19.161 11.3408 19.5892 11.3408 23C11.3408 26.4109 11.3562 26.839 11.4235 28.1782C11.4897 29.5153 11.7203 30.4284 12.058 31.2268C12.4067 32.0526 12.8734 32.7541 13.6336 33.4517C14.3938 34.1493 15.1547 34.5789 16.0534 34.9004C16.9229 35.2109 17.9149 35.4229 19.3691 35.4838C20.8264 35.5447 21.2913 35.5598 25.0009 35.5598C28.7106 35.5598 29.1762 35.5457 30.6327 35.4838C32.0871 35.4229 33.0801 35.2109 33.9485 34.9004C34.8466 34.5789 35.608 34.1496 36.3683 33.4517C37.1285 32.7538 37.5942 32.0526 37.9439 31.2268C38.2816 30.4284 38.5132 29.5152 38.5784 28.1782C38.6446 26.838 38.66 26.4109 38.66 23C38.66 19.5892 38.6446 19.161 38.5784 17.8218C38.5122 16.4847 38.2816 15.5711 37.9439 14.7732C37.5942 13.9474 37.1273 13.2474 36.3683 12.5483C35.6092 11.8493 34.8466 11.4203 33.9495 11.0996C33.0801 10.7891 32.087 10.5761 30.6338 10.5162C29.1773 10.4554 28.7117 10.4402 25.002 10.4402C21.2924 10.4402 20.8264 10.4544 19.3691 10.5162Z" fill="url(#paint1_radial_148_234)"/>
<defs>
<radialGradient id="paint0_radial_148_234" cx="0" cy="0" r="1" gradientUnits="userSpaceOnUse" gradientTransform="translate(14.9704 35.6785) scale(35.6644 32.7916)">
<stop offset="0.09" stop-color="#FA8F21"/>
<stop offset="0.78" stop-color="#D82D7E"/>
</radialGradient>
<radialGradient id="paint1_radial_148_234" cx="0" cy="0" r="1" gradientUnits="userSpaceOnUse" gradientTransform="translate(27.9093 36.8039) scale(28.1085 25.8443)">
<stop offset="0.64" stop-color="#8C3AAA" stop-opacity="0"/>
<stop offset="1" stop-color="#8C3AAA"/>
</radialGradient>
</defs>
</svg>
