<svg width="69" height="13" viewBox="0 0 69 13" fill="none" xmlns="http://www.w3.org/2000/svg">
<path d="M7.75 5.51562V6.74219H1.59375V5.51562H7.75ZM1.82812 0.625V12H0.320312V0.625H1.82812ZM9.0625 0.625V12H7.5625V0.625H9.0625ZM16.5078 10.5547V6.20312C16.5078 5.86979 16.4401 5.58073 16.3047 5.33594C16.1745 5.08594 15.9766 4.89323 15.7109 4.75781C15.4453 4.6224 15.1172 4.55469 14.7266 4.55469C14.362 4.55469 14.0417 4.61719 13.7656 4.74219C13.4948 4.86719 13.2812 5.03125 13.125 5.23438C12.974 5.4375 12.8984 5.65625 12.8984 5.89062H11.4531C11.4531 5.58854 11.5312 5.28906 11.6875 4.99219C11.8438 4.69531 12.0677 4.42708 12.3594 4.1875C12.6562 3.94271 13.0104 3.75 13.4219 3.60938C13.8385 3.46354 14.3021 3.39062 14.8125 3.39062C15.4271 3.39062 15.9688 3.49479 16.4375 3.70312C16.9115 3.91146 17.2812 4.22656 17.5469 4.64844C17.8177 5.0651 17.9531 5.58854 17.9531 6.21875V10.1562C17.9531 10.4375 17.9766 10.737 18.0234 11.0547C18.0755 11.3724 18.151 11.6458 18.25 11.875V12H16.7422C16.6693 11.8333 16.612 11.612 16.5703 11.3359C16.5286 11.0547 16.5078 10.7943 16.5078 10.5547ZM16.7578 6.875L16.7734 7.89062H15.3125C14.901 7.89062 14.5339 7.92448 14.2109 7.99219C13.888 8.05469 13.6172 8.15104 13.3984 8.28125C13.1797 8.41146 13.013 8.57552 12.8984 8.77344C12.7839 8.96615 12.7266 9.19271 12.7266 9.45312C12.7266 9.71875 12.7865 9.96094 12.9062 10.1797C13.026 10.3984 13.2057 10.5729 13.4453 10.7031C13.6901 10.8281 13.9896 10.8906 14.3438 10.8906C14.7865 10.8906 15.1771 10.7969 15.5156 10.6094C15.8542 10.4219 16.1224 10.1927 16.3203 9.92188C16.5234 9.65104 16.6328 9.38802 16.6484 9.13281L17.2656 9.82812C17.2292 10.0469 17.1302 10.2891 16.9688 10.5547C16.8073 10.8203 16.5911 11.0755 16.3203 11.3203C16.0547 11.5599 15.737 11.7604 15.3672 11.9219C15.0026 12.0781 14.5911 12.1562 14.1328 12.1562C13.5599 12.1562 13.0573 12.0443 12.625 11.8203C12.1979 11.5964 11.8646 11.2969 11.625 10.9219C11.3906 10.5417 11.2734 10.1172 11.2734 9.64844C11.2734 9.19531 11.362 8.79688 11.5391 8.45312C11.7161 8.10417 11.9714 7.8151 12.3047 7.58594C12.638 7.35156 13.0391 7.17448 13.5078 7.05469C13.9766 6.9349 14.5 6.875 15.0781 6.875H16.7578ZM21.7969 3.54688V12H20.3438V3.54688H21.7969ZM20.2344 1.30469C20.2344 1.07031 20.3047 0.872396 20.4453 0.710938C20.5911 0.549479 20.8047 0.46875 21.0859 0.46875C21.362 0.46875 21.5729 0.549479 21.7188 0.710938C21.8698 0.872396 21.9453 1.07031 21.9453 1.30469C21.9453 1.52865 21.8698 1.72135 21.7188 1.88281C21.5729 2.03906 21.362 2.11719 21.0859 2.11719C20.8047 2.11719 20.5911 2.03906 20.4453 1.88281C20.3047 1.72135 20.2344 1.52865 20.2344 1.30469ZM27.625 12.1562C27.0365 12.1562 26.5026 12.0573 26.0234 11.8594C25.5495 11.6562 25.1406 11.3724 24.7969 11.0078C24.4583 10.6432 24.1979 10.2109 24.0156 9.71094C23.8333 9.21094 23.7422 8.66406 23.7422 8.07031V7.74219C23.7422 7.05469 23.8438 6.44271 24.0469 5.90625C24.25 5.36458 24.526 4.90625 24.875 4.53125C25.224 4.15625 25.6198 3.8724 26.0625 3.67969C26.5052 3.48698 26.9635 3.39062 27.4375 3.39062C28.0417 3.39062 28.5625 3.49479 29 3.70312C29.4427 3.91146 29.8047 4.20312 30.0859 4.57812C30.3672 4.94792 30.5755 5.38542 30.7109 5.89062C30.8464 6.39062 30.9141 6.9375 30.9141 7.53125V8.17969H24.6016V7H29.4688V6.89062C29.4479 6.51562 29.3698 6.15104 29.2344 5.79688C29.1042 5.44271 28.8958 5.15104 28.6094 4.92188C28.3229 4.69271 27.9323 4.57812 27.4375 4.57812C27.1094 4.57812 26.8073 4.64844 26.5312 4.78906C26.2552 4.92448 26.0182 5.1276 25.8203 5.39844C25.6224 5.66927 25.4688 6 25.3594 6.39062C25.25 6.78125 25.1953 7.23177 25.1953 7.74219V8.07031C25.1953 8.47135 25.25 8.84896 25.3594 9.20312C25.474 9.55208 25.638 9.85938 25.8516 10.125C26.0703 10.3906 26.3333 10.599 26.6406 10.75C26.9531 10.901 27.3073 10.9766 27.7031 10.9766C28.2135 10.9766 28.6458 10.8724 29 10.6641C29.3542 10.4557 29.6641 10.1771 29.9297 9.82812L30.8047 10.5234C30.6224 10.7995 30.3906 11.0625 30.1094 11.3125C29.8281 11.5625 29.4818 11.7656 29.0703 11.9219C28.6641 12.0781 28.1823 12.1562 27.625 12.1562ZM34.0469 4.875V12H32.6016V3.54688H34.0078L34.0469 4.875ZM36.6875 3.5L36.6797 4.84375C36.5599 4.81771 36.4453 4.80208 36.3359 4.79688C36.2318 4.78646 36.112 4.78125 35.9766 4.78125C35.6432 4.78125 35.349 4.83333 35.0938 4.9375C34.8385 5.04167 34.6224 5.1875 34.4453 5.375C34.2682 5.5625 34.1276 5.78646 34.0234 6.04688C33.9245 6.30208 33.8594 6.58333 33.8281 6.89062L33.4219 7.125C33.4219 6.61458 33.4714 6.13542 33.5703 5.6875C33.6745 5.23958 33.8333 4.84375 34.0469 4.5C34.2604 4.15104 34.5312 3.88021 34.8594 3.6875C35.1927 3.48958 35.5885 3.39062 36.0469 3.39062C36.151 3.39062 36.2708 3.40365 36.4062 3.42969C36.5417 3.45052 36.6354 3.47396 36.6875 3.5ZM49.0781 8.38281H50.5781C50.5 9.10156 50.2943 9.74479 49.9609 10.3125C49.6276 10.8802 49.1562 11.3307 48.5469 11.6641C47.9375 11.9922 47.1771 12.1562 46.2656 12.1562C45.599 12.1562 44.9922 12.0312 44.4453 11.7812C43.9036 11.5312 43.4375 11.1771 43.0469 10.7188C42.6562 10.2552 42.3542 9.70052 42.1406 9.05469C41.9323 8.40365 41.8281 7.67969 41.8281 6.88281V5.75C41.8281 4.95312 41.9323 4.23177 42.1406 3.58594C42.3542 2.9349 42.6589 2.3776 43.0547 1.91406C43.4557 1.45052 43.9375 1.09375 44.5 0.84375C45.0625 0.59375 45.6953 0.46875 46.3984 0.46875C47.2578 0.46875 47.9844 0.630208 48.5781 0.953125C49.1719 1.27604 49.6328 1.72396 49.9609 2.29688C50.2943 2.86458 50.5 3.52344 50.5781 4.27344H49.0781C49.0052 3.74219 48.8698 3.28646 48.6719 2.90625C48.474 2.52083 48.1927 2.22396 47.8281 2.01562C47.4635 1.80729 46.987 1.70312 46.3984 1.70312C45.8932 1.70312 45.4479 1.79948 45.0625 1.99219C44.6823 2.1849 44.362 2.45833 44.1016 2.8125C43.8464 3.16667 43.6536 3.59115 43.5234 4.08594C43.3932 4.58073 43.3281 5.13021 43.3281 5.73438V6.88281C43.3281 7.4401 43.3854 7.96354 43.5 8.45312C43.6198 8.94271 43.7995 9.3724 44.0391 9.74219C44.2786 10.112 44.5833 10.4036 44.9531 10.6172C45.3229 10.8255 45.7604 10.9297 46.2656 10.9297C46.9062 10.9297 47.4167 10.8281 47.7969 10.625C48.1771 10.4219 48.4635 10.1302 48.6562 9.75C48.8542 9.36979 48.9948 8.91406 49.0781 8.38281ZM59.8594 10.7734V12H53.8359V10.7734H59.8594ZM54.1406 0.625V12H52.6328V0.625H54.1406ZM59.0625 5.51562V6.74219H53.8359V5.51562H59.0625ZM59.7812 0.625V1.85938H53.8359V0.625H59.7812ZM63.2344 0.625V12H61.7266V0.625H63.2344ZM68 5.74219V6.97656H62.9062V5.74219H68ZM68.7734 0.625V1.85938H62.9062V0.625H68.7734Z" fill="#0A0A0A"/>
</svg>
