<svg width="20" height="14" viewBox="0 0 20 14" fill="none" xmlns="http://www.w3.org/2000/svg">
<path d="M17.7364 4.82759L12.7774 4.3231L10.5606 1.1772C10.5001 1.09107 10.4005 1.02134 10.2774 0.97896C9.96882 0.87232 9.59382 0.961187 9.43952 1.1772L7.22272 4.3231L2.26374 4.82759C2.12702 4.84127 2.00202 4.88638 1.90632 4.95474C1.79062 5.03798 1.72686 5.14998 1.72906 5.26611C1.73126 5.38224 1.79923 5.49301 1.91804 5.57408L5.50593 8.02271L4.65827 11.4803C4.63839 11.5608 4.65111 11.6435 4.69497 11.7191C4.73884 11.7947 4.8121 11.8603 4.90645 11.9082C5.0008 11.9562 5.11246 11.9847 5.22878 11.9905C5.34509 11.9963 5.4614 11.9792 5.56452 11.9411L10.0001 10.3086L14.4356 11.9411C14.5567 11.9862 14.6973 12.0012 14.8321 11.9848C15.1719 11.9438 15.4005 11.7182 15.3419 11.4803L14.4942 8.02271L18.0821 5.57408C18.1798 5.50709 18.2442 5.41959 18.2637 5.32388C18.3165 5.08462 18.0782 4.86314 17.7364 4.82759ZM12.9844 7.67818L13.6895 10.5534L10.0001 9.19713L6.31061 10.5547L7.01569 7.67955L4.03132 5.64244L8.15632 5.22271L10.0001 2.60728L11.8438 5.22271L15.9688 5.64244L12.9844 7.67818Z" fill="#E8AB0E"/>
</svg>
