<svg width="50" height="46" viewBox="0 0 50 46" fill="none" xmlns="http://www.w3.org/2000/svg">
<path d="M25.1278 37.1921C32.6721 37.1921 38.788 31.5655 38.788 24.6247C38.788 17.684 32.6721 12.0574 25.1278 12.0574C17.5835 12.0574 11.4677 17.684 11.4677 24.6247C11.4677 31.5655 17.5835 37.1921 25.1278 37.1921Z" fill="#34AADF"/>
<path d="M17.3235 24.3494C17.3235 24.3494 24.0901 21.701 26.4368 20.7684C27.3365 20.3954 30.3873 19.2017 30.3873 19.2017C30.3873 19.2017 31.7954 18.6795 31.678 19.9478C31.6389 20.47 31.326 22.2978 31.0131 24.2748C30.5437 27.0725 30.0352 30.1312 30.0352 30.1312C30.0352 30.1312 29.957 30.9892 29.2921 31.1384C28.6272 31.2876 27.532 30.6162 27.3365 30.4669C27.18 30.3551 24.403 28.6764 23.386 27.8558C23.1122 27.632 22.7994 27.1844 23.4251 26.6622C24.8332 25.4312 26.5151 23.9018 27.532 22.932C28.0014 22.4843 28.4707 21.4399 26.5151 22.7081C23.7381 24.5359 21.0002 26.2518 21.0002 26.2518C21.0002 26.2518 20.3743 26.6248 19.201 26.2891C18.0275 25.9534 16.6586 25.5058 16.6586 25.5058C16.6586 25.5058 15.7199 24.9463 17.3235 24.3494Z" fill="white"/>
</svg>
