<svg width="50" height="46" viewBox="0 0 50 46" fill="none" xmlns="http://www.w3.org/2000/svg">
<path d="M37.6472 15.6474C36.8217 15.9743 35.9537 16.2019 35.0649 16.3246C35.4805 16.2591 36.0919 15.5709 36.3353 15.2924C36.7051 14.8722 36.9869 14.3926 37.1664 13.8779C37.1664 13.8396 37.208 13.785 37.1664 13.7577C37.1455 13.7472 37.122 13.7417 37.0981 13.7417C37.0743 13.7417 37.0508 13.7472 37.0299 13.7577C36.0647 14.2386 35.0375 14.6055 33.9726 14.85C33.9355 14.8604 33.896 14.8614 33.8583 14.8527C33.8207 14.8441 33.7863 14.8261 33.7589 14.8009C33.676 14.71 33.5868 14.6243 33.4918 14.5442C33.0574 14.1861 32.5646 13.8931 32.0314 13.6758C31.3117 13.4041 30.5342 13.2865 29.7578 13.3317C29.0044 13.3755 28.2689 13.5614 27.5969 13.8779C26.9352 14.2115 26.3537 14.6648 25.8872 15.2105C25.3966 15.7721 25.0424 16.4239 24.8484 17.122C24.6884 17.786 24.6703 18.4723 24.7949 19.1427C24.7949 19.2574 24.7949 19.2738 24.6881 19.2574C20.4554 18.684 16.9826 17.3022 14.1451 14.3366C14.0204 14.2056 13.9551 14.2056 13.8542 14.3366C12.6194 16.0625 13.219 18.7932 14.7624 20.1422C14.9702 20.3224 15.1839 20.4972 15.4095 20.661C14.7018 20.6148 14.0114 20.4384 13.3793 20.1422C13.2605 20.0712 13.1952 20.1094 13.1893 20.2405C13.1725 20.4222 13.1725 20.6049 13.1893 20.7866C13.3132 21.6575 13.6862 22.4825 14.2703 23.1773C14.8544 23.872 15.6286 24.4116 16.5137 24.7408C16.7294 24.8258 16.9543 24.8898 17.1845 24.9319C16.5294 25.0506 15.8574 25.069 15.1958 24.9865C15.0533 24.9592 14.9999 25.0302 15.0533 25.1558C15.926 27.3404 17.8197 28.0067 19.2088 28.3781C19.3988 28.4054 19.5887 28.4054 19.8024 28.4491C19.8024 28.4491 19.8024 28.4491 19.7668 28.4819C19.3572 29.17 17.701 29.6343 16.9411 29.8746C15.5542 30.3329 14.0754 30.5081 12.6075 30.3879C12.376 30.3552 12.3226 30.3606 12.2632 30.3879C12.2038 30.4152 12.2632 30.4753 12.3285 30.5299C12.6253 30.7102 12.9222 30.8685 13.2308 31.0215C14.1498 31.4826 15.1214 31.8489 16.1278 32.1138C21.34 33.4354 27.2051 32.4633 31.1172 28.886C34.1923 26.0788 35.2727 22.2066 35.2727 18.329C35.2727 18.1815 35.4686 18.0941 35.5814 18.0177C36.3594 17.46 37.0452 16.8014 37.6176 16.0625C37.7167 15.9523 37.7675 15.8121 37.76 15.6692C37.76 15.5873 37.76 15.6037 37.6472 15.6474Z" fill="#33CCFF"/>
</svg>
