<svg width="50" height="46" viewBox="0 0 50 46" fill="none" xmlns="http://www.w3.org/2000/svg">
<path d="M12.5001 33.5801L14.2938 27.4497C12.8472 25.0616 12.3877 22.2749 12.9994 19.601C13.6111 16.927 15.2531 14.5452 17.6241 12.8925C19.9951 11.2399 22.936 10.4273 25.9072 10.6038C28.8783 10.7804 31.6805 11.9342 33.7994 13.8537C35.9183 15.7731 37.2119 18.3294 37.4427 21.0534C37.6735 23.7774 36.8261 26.4865 35.056 28.6834C33.2859 30.8804 30.7118 32.4179 27.8061 33.0138C24.9004 33.6097 21.8579 33.224 19.2371 31.9276L12.5001 33.5801ZM19.5619 29.6336L19.9786 29.8604C21.8769 30.8929 24.0942 31.3202 26.2848 31.0757C28.4754 30.8311 30.5163 29.9284 32.0895 28.5083C33.6627 27.0882 34.6798 25.2304 34.9823 23.2244C35.2847 21.2185 34.8556 19.1771 33.7618 17.4183C32.6679 15.6595 30.9708 14.2822 28.9349 13.5009C26.8989 12.7197 24.6386 12.5784 22.506 13.0991C20.3734 13.6198 18.4885 14.7732 17.1448 16.3797C15.8012 17.9861 15.0744 19.9553 15.0777 21.9803C15.0759 23.6594 15.5819 25.306 16.5395 26.7369L16.8007 27.1322L15.798 30.5538L19.5619 29.6336Z" fill="#00D95F"/>
<path fill-rule="evenodd" clip-rule="evenodd" d="M29.6742 23.5546C29.4299 23.3738 29.1439 23.2466 28.838 23.1825C28.5321 23.1185 28.2142 23.1194 27.9087 23.1852C27.4497 23.3602 27.1531 24.0212 26.8565 24.3517C26.794 24.4309 26.7021 24.4864 26.5981 24.5079C26.4941 24.5294 26.3851 24.5153 26.2916 24.4683C24.6111 23.8643 23.2025 22.7567 22.2946 21.3253C22.2172 21.236 22.1805 21.1226 22.1924 21.009C22.2042 20.8954 22.2637 20.7904 22.3582 20.7162C22.689 20.4157 22.9319 20.0435 23.0643 19.634C23.0938 19.1823 22.981 18.7324 22.7395 18.3379C22.5528 17.7849 22.1975 17.2924 21.7155 16.9187C21.467 16.8161 21.1914 16.7817 20.922 16.8197C20.6525 16.8576 20.4009 16.9663 20.1973 17.1326C19.8438 17.4124 19.5632 17.7615 19.3763 18.154C19.1893 18.5465 19.1006 18.9726 19.1168 19.4007C19.1179 19.6411 19.1511 19.8805 19.2157 20.1135C19.3797 20.6734 19.6318 21.2082 19.9642 21.7012C20.204 22.0788 20.4657 22.4444 20.7481 22.7964C21.6658 23.9525 22.8194 24.934 24.1448 25.6866C24.8099 26.069 25.5208 26.38 26.2633 26.6133C27.0347 26.9342 27.8864 27.0573 28.7279 26.9697C29.2074 26.9031 29.6616 26.7294 30.0508 26.4638C30.4399 26.1983 30.7519 25.849 30.9594 25.4468C31.0813 25.2039 31.1183 24.9322 31.0653 24.6692C30.9382 24.1313 30.1544 23.8138 29.6742 23.5546Z" fill="#00D95F"/>
</svg>
